<?xml version="1.0" standalone="no"?>
<!DOCTYPE svg PUBLIC "-//W3C//DTD SVG 20010904//EN"
 "http://www.w3.org/TR/2001/REC-SVG-20010904/DTD/svg10.dtd">
<svg version="1.0" xmlns="http://www.w3.org/2000/svg"
 width="2427.000000pt" height="601.000000pt" viewBox="0 0 2427.000000 601.000000"
 preserveAspectRatio="xMidYMid meet">

<g transform="translate(0.000000,601.000000) scale(0.100000,-0.100000)"
fill="#000000" stroke="none">
<path d="M5550 4884 c-252 -49 -449 -180 -605 -404 -22 -30 -40 -57 -42 -59
-1 -2 -51 10 -110 27 -256 72 -441 97 -723 96 -269 0 -440 -22 -708 -90 l-173
-43 -101 105 c-150 156 -297 244 -467 280 -88 18 -277 18 -387 -1 -377 -66
-660 -269 -804 -579 -188 -401 -18 -801 438 -1030 53 -27 53 -28 48 -64 -66
-428 -12 -883 142 -1192 199 -399 494 -610 992 -710 632 -127 1461 -131 1965
-10 315 75 557 193 776 377 293 248 470 613 520 1078 11 107 7 486 -7 546 -5
23 3 32 79 87 306 223 407 550 277 900 -92 245 -324 489 -575 603 -129 58
-228 81 -375 84 -74 2 -146 1 -160 -1z m273 -270 c80 -18 212 -76 280 -123
156 -107 278 -269 328 -433 17 -56 20 -88 17 -171 -3 -90 -8 -110 -36 -168
-18 -37 -53 -90 -78 -118 -56 -62 -206 -163 -268 -181 -41 -11 -45 -15 -41
-39 15 -88 35 -366 35 -487 0 -474 -158 -874 -436 -1105 -220 -184 -460 -289
-804 -354 -338 -63 -875 -69 -1354 -15 -515 59 -759 143 -958 329 -312 293
-426 809 -316 1437 12 67 19 128 15 137 -3 8 -36 25 -74 37 -37 12 -104 40
-147 61 -324 160 -440 400 -326 672 63 151 187 278 345 353 144 69 248 95 400
101 121 5 135 4 208 -21 43 -14 106 -44 142 -66 75 -48 210 -187 279 -288 27
-40 53 -72 58 -72 5 0 55 16 111 36 329 114 720 170 1024 146 260 -20 429 -57
656 -141 75 -28 139 -51 142 -51 3 0 26 42 51 93 88 174 174 279 293 356 57
37 151 74 211 84 60 10 177 6 243 -9z"/>
<path d="M5698 4171 c-31 -10 -73 -29 -94 -42 -42 -25 -135 -105 -147 -125 -5
-8 18 -30 71 -67 102 -72 175 -140 242 -226 30 -39 60 -71 65 -71 19 0 92 83
130 145 42 71 56 119 56 190 0 98 -54 173 -145 200 -64 19 -108 18 -178 -4z"/>
<path d="M2366 4050 c-113 -34 -173 -150 -141 -273 9 -34 26 -80 40 -102 31
-53 156 -174 162 -157 11 30 101 142 159 198 35 34 95 83 133 109 39 27 71 52
71 56 0 14 -97 94 -147 121 -90 49 -205 69 -277 48z"/>
<path d="M4663 2690 c-100 -61 -104 -276 -6 -317 31 -12 38 -12 71 4 74 36
112 139 88 234 -24 91 -84 122 -153 79z"/>
<path d="M3580 2612 c-55 -55 -72 -132 -49 -216 32 -114 147 -116 203 -4 32
63 34 134 7 195 -35 76 -100 86 -161 25z"/>
<path d="M4172 2176 c-163 -53 -190 -211 -47 -277 51 -24 164 -25 229 -3 150
51 178 198 51 264 -59 30 -166 37 -233 16z"/>
<path d="M22490 4651 c-84 -26 -169 -99 -211 -181 -34 -67 -38 -186 -9 -262
28 -75 96 -150 168 -185 77 -38 201 -40 276 -5 79 36 132 86 166 156 113 230
-46 488 -298 485 -37 0 -78 -4 -92 -8z m213 -64 c59 -25 130 -101 151 -164 62
-181 -62 -369 -251 -381 -80 -5 -148 17 -208 70 -84 74 -117 175 -91 278 47
183 225 271 399 197z"/>
<path d="M22470 4331 c0 -144 1 -151 20 -151 18 0 20 7 20 60 l0 60 44 0 45 0
22 -60 c19 -51 25 -60 47 -60 27 0 27 2 -3 81 l-18 45 27 27 c33 33 34 76 2
113 -21 26 -30 28 -115 32 l-91 4 0 -151z m162 92 c44 -40 6 -86 -68 -81 -47
3 -49 4 -52 36 -2 19 -1 40 2 48 8 20 94 19 118 -3z"/>
<path d="M19731 4325 c-70 -20 -107 -43 -165 -105 -66 -70 -90 -128 -90 -217
-1 -118 15 -140 499 -705 l430 -503 5 -550 c5 -531 6 -552 26 -601 61 -148
195 -223 380 -211 144 9 253 78 307 195 22 46 22 57 25 603 l3 556 440 509
c306 355 449 527 469 568 25 50 30 71 30 135 0 95 -28 160 -100 232 -72 72
-145 103 -240 103 -81 0 -130 -16 -187 -60 -18 -14 -200 -223 -403 -465 -204
-241 -374 -439 -379 -439 -4 0 -168 190 -363 423 -196 232 -373 439 -395 459
-75 73 -190 101 -292 73z"/>
<path d="M9970 4314 c-101 -37 -173 -109 -207 -207 -17 -49 -18 -120 -18
-1227 0 -1345 -7 -1239 89 -1336 94 -94 47 -89 921 -89 828 0 823 0 909 57
113 74 141 287 56 421 -22 35 -43 52 -96 78 l-69 34 -535 5 -535 5 -5 1015
c-5 1014 -5 1015 -27 1062 -30 66 -96 133 -162 165 -49 24 -70 27 -166 30 -83
2 -121 -1 -155 -13z"/>
<path d="M12146 4311 c-104 -42 -167 -106 -200 -204 -14 -42 -16 -135 -16
-840 0 -643 3 -810 15 -887 71 -464 309 -758 718 -889 176 -56 254 -66 532
-65 271 0 359 12 535 70 429 144 674 484 720 996 13 151 13 1488 0 1559 -22
112 -89 201 -188 247 -51 24 -68 27 -172 27 -97 0 -122 -3 -162 -22 -66 -30
-133 -96 -165 -162 l-28 -56 -5 -810 c-6 -792 -6 -812 -28 -888 -75 -269 -243
-401 -512 -401 -224 0 -379 90 -464 267 -72 148 -69 113 -75 1012 l-6 810 -29
62 c-33 72 -95 135 -164 166 -69 31 -237 35 -306 8z"/>
<path d="M7593 4292 c-107 -38 -172 -120 -193 -241 -7 -46 -10 -414 -8 -1206
l3 -1140 24 -60 c37 -90 117 -167 205 -194 176 -54 359 0 441 129 53 84 55
108 55 592 l0 448 486 0 c407 0 496 3 555 16 88 20 145 61 179 129 21 42 25
64 25 140 -1 142 -49 221 -164 267 -55 23 -64 23 -568 26 l-513 3 0 264 0 264
548 3 c478 4 553 6 598 21 117 39 171 110 181 240 11 140 -41 239 -150 288
l-52 24 -800 2 c-748 2 -803 1 -852 -15z"/>
<path d="M15185 4296 c-93 -29 -149 -78 -187 -161 l-23 -50 -3 -1170 c-3
-1062 -1 -1176 14 -1232 26 -102 94 -181 191 -226 40 -18 66 -22 158 -22 105
0 114 2 177 33 77 38 128 93 161 174 21 51 22 67 25 516 l3 462 476 0 c300 0
500 4 539 11 95 16 162 61 197 130 25 50 29 68 29 143 0 76 -4 95 -28 144 -38
75 -92 115 -183 136 -59 13 -147 16 -550 16 l-481 0 0 264 0 265 543 3 c527 4
544 4 608 26 50 17 76 33 106 65 50 54 66 101 67 192 1 136 -46 221 -146 266
l-53 24 -800 2 c-627 2 -809 -1 -840 -11z"/>
<path d="M17535 4296 c-95 -30 -158 -87 -191 -172 -18 -47 -19 -96 -19 -1244
l0 -1195 26 -56 c34 -72 96 -134 168 -168 50 -23 68 -26 166 -26 98 0 116 3
166 26 102 48 167 134 189 248 6 31 10 234 10 482 l0 429 483 0 c350 0 499 4
543 13 85 18 148 58 181 115 24 41 28 59 31 147 3 94 2 104 -25 155 -37 73
-93 114 -182 134 -59 13 -147 16 -550 16 l-481 0 0 264 0 264 543 5 c624 4
623 4 708 86 56 55 72 102 71 213 -1 149 -59 228 -197 264 -71 19 -1580 19
-1640 0z"/>
</g>
</svg>
